<?xml version="1.0" encoding="UTF-8" standalone="no"?>
<!-- Created with Inkscape (http://www.inkscape.org/) -->

<svg
   xmlns:dc="http://purl.org/dc/elements/1.1/"
   xmlns:cc="http://creativecommons.org/ns#"
   xmlns:rdf="http://www.w3.org/1999/02/22-rdf-syntax-ns#"
   xmlns:svg="http://www.w3.org/2000/svg"
   xmlns="http://www.w3.org/2000/svg"
   xmlns:xlink="http://www.w3.org/1999/xlink"
   xmlns:sodipodi="http://sodipodi.sourceforge.net/DTD/sodipodi-0.dtd"
   xmlns:inkscape="http://www.inkscape.org/namespaces/inkscape"
   width="744.09448819"
   height="1052.3622047"
   id="svg2"
   version="1.1"
   inkscape:version="0.48.3.1 r9886"
   sodipodi:docname="logo.svg">
  <defs
     id="defs4">
    <linearGradient
       id="linearGradient3858">
      <stop
         id="stop3860"
         offset="0"
         style="stop-color:#ffffff;stop-opacity:1;" />
      <stop
         style="stop-color:#ffffff;stop-opacity:0.85087717;"
         offset="0.5"
         id="stop3864" />
      <stop
         id="stop3862"
         offset="1"
         style="stop-color:#ffffff;stop-opacity:0;" />
    </linearGradient>
    <linearGradient
       inkscape:collect="always"
       id="linearGradient3889">
      <stop
         style="stop-color:#000000;stop-opacity:1;"
         offset="0"
         id="stop3891" />
      <stop
         style="stop-color:#000000;stop-opacity:0;"
         offset="1"
         id="stop3893" />
    </linearGradient>
    <linearGradient
       id="linearGradient3845">
      <stop
         style="stop-color:#000000;stop-opacity:1;"
         offset="0"
         id="stop3847" />
      <stop
         style="stop-color:#000000;stop-opacity:0;"
         offset="1"
         id="stop3849" />
    </linearGradient>
    <linearGradient
       inkscape:collect="always"
       xlink:href="#linearGradient3845"
       id="linearGradient3851"
       x1="101.11627"
       y1="222.48951"
       x2="529.45511"
       y2="222.48951"
       gradientUnits="userSpaceOnUse"
       gradientTransform="translate(-0.15625,0)" />
    <linearGradient
       inkscape:collect="always"
       xlink:href="#linearGradient3889"
       id="linearGradient3895"
       x1="479"
       y1="393.36218"
       x2="102"
       y2="390.36218"
       gradientUnits="userSpaceOnUse"
       gradientTransform="translate(-0.26516504,-145.35355)" />
    <linearGradient
       inkscape:collect="always"
       xlink:href="#linearGradient3889"
       id="linearGradient3897"
       x1="479"
       y1="393.36218"
       x2="102"
       y2="390.36218"
       gradientUnits="userSpaceOnUse"
       gradientTransform="translate(0,-145)" />
    <linearGradient
       inkscape:collect="always"
       xlink:href="#linearGradient3889"
       id="linearGradient3899"
       x1="479"
       y1="393.36218"
       x2="102"
       y2="390.36218"
       gradientUnits="userSpaceOnUse"
       gradientTransform="translate(0,-145)" />
    <linearGradient
       inkscape:collect="always"
       xlink:href="#linearGradient3845"
       id="linearGradient3096"
       gradientUnits="userSpaceOnUse"
       gradientTransform="translate(-0.15625,366.28131)"
       x1="101.11627"
       y1="222.48951"
       x2="529.45511"
       y2="222.48951" />
    <linearGradient
       inkscape:collect="always"
       xlink:href="#linearGradient3845"
       id="linearGradient3109"
       gradientUnits="userSpaceOnUse"
       gradientTransform="translate(-0.15625,366.28131)"
       x1="117.99631"
       y1="222.48952"
       x2="529.45511"
       y2="222.48951" />
    <linearGradient
       inkscape:collect="always"
       xlink:href="#linearGradient3845"
       id="linearGradient3213"
       gradientUnits="userSpaceOnUse"
       gradientTransform="translate(-0.15625,217.28131)"
       x1="117.99631"
       y1="222.48952"
       x2="529.45511"
       y2="222.48951" />
    <linearGradient
       inkscape:collect="always"
       xlink:href="#linearGradient3845"
       id="linearGradient3235"
       gradientUnits="userSpaceOnUse"
       gradientTransform="translate(-0.15625,328.1869)"
       x1="117.99631"
       y1="222.48952"
       x2="529.45511"
       y2="222.48951" />
    <linearGradient
       inkscape:collect="always"
       xlink:href="#linearGradient3845"
       id="linearGradient3241"
       gradientUnits="userSpaceOnUse"
       gradientTransform="matrix(0.06499255,0,0,1,-635.39103,-165.41813)"
       x1="101.11627"
       y1="222.48951"
       x2="529.45511"
       y2="222.48951" />
    <linearGradient
       inkscape:collect="always"
       xlink:href="#linearGradient3858"
       id="linearGradient3075"
       gradientUnits="userSpaceOnUse"
       gradientTransform="translate(2.260439,441.26374)"
       x1="125.11627"
       y1="222.48952"
       x2="529.2265"
       y2="222.48952" />
    <linearGradient
       inkscape:collect="always"
       xlink:href="#linearGradient3858"
       id="linearGradient3878"
       gradientUnits="userSpaceOnUse"
       gradientTransform="translate(2.260439,441.26374)"
       x1="125.11627"
       y1="222.48952"
       x2="529.2265"
       y2="222.48952" />
  </defs>
  <sodipodi:namedview
     id="base"
     pagecolor="#ffffff"
     bordercolor="#666666"
     borderopacity="1.0"
     inkscape:pageopacity="0.0"
     inkscape:pageshadow="2"
     inkscape:zoom="1.4142136"
     inkscape:cx="317.1265"
     inkscape:cy="355.67176"
     inkscape:document-units="px"
     inkscape:current-layer="layer1"
     showgrid="false"
     inkscape:window-width="1918"
     inkscape:window-height="1078"
     inkscape:window-x="0"
     inkscape:window-y="0"
     inkscape:window-maximized="0" />
  <metadata
     id="metadata7">
    <rdf:RDF>
      <cc:Work
         rdf:about="">
        <dc:format>image/svg+xml</dc:format>
        <dc:type
           rdf:resource="http://purl.org/dc/dcmitype/StillImage" />
        <dc:title></dc:title>
      </cc:Work>
    </rdf:RDF>
  </metadata>
  <g
     inkscape:label="Layer 1"
     inkscape:groupmode="layer"
     id="layer1">
    <rect
       style="fill:#000000;fill-opacity:1;stroke:none"
       id="rect3856"
       width="601"
       height="142"
       x="-21.5"
       y="626.36218"
       inkscape:export-filename="/home/benja/tmp/starstream-api/images/logo.png"
       inkscape:export-xdpi="76.672211"
       inkscape:export-ydpi="76.672211" />
    <text
       xml:space="preserve"
       style="font-size:117.43341064px;font-style:normal;font-variant:normal;font-weight:normal;font-stretch:normal;line-height:125%;letter-spacing:0px;word-spacing:0px;fill:#000000;fill-opacity:1;stroke:none;font-family:ProFontWindows;-inkscape-font-specification:ProFontWindows"
       x="52.142849"
       y="161.8174"
       id="text2985"
       sodipodi:linespacing="125%"><tspan
         sodipodi:role="line"
         id="tspan2987"
         x="52.142849"
         y="161.8174"
         dx="0 -23.571423 -12.142859 -4.2857151 -8.5714293 -24.285707 -10.000001 -6.4285727 -5.7142859 -5">Starstream</tspan></text>
    <g
       style="font-size:117.43341064px;font-style:normal;font-variant:normal;font-weight:normal;font-stretch:normal;line-height:125%;letter-spacing:0px;word-spacing:0px;fill:#000000;fill-opacity:1;stroke:none;font-family:ProFontWindows;-inkscape-font-specification:ProFontWindows"
       id="text3853"
       transform="translate(0,-145)">
      <path
         d="m 101.07344,373.24515 c -5e-5,5.34976 -1.924653,9.94923 -5.773813,13.79842 -3.849245,3.84921 -8.448716,5.77381 -13.798425,5.77381 l -9.786118,0 c -5.349758,0 -9.949229,-1.89198 -13.798426,-5.67595 -3.849208,-3.84919 -5.773809,-8.48128 -5.773809,-13.89628 l 9.786118,0 c -1e-5,2.67489 0.94598,4.99093 2.837974,6.94814 1.957209,1.89199 4.273254,2.83799 6.948143,2.83798 l 9.786118,0 c 2.67484,10e-6 4.958265,-0.94599 6.850282,-2.83798 1.957185,-1.95721 2.935796,-4.27325 2.935835,-6.94814 -3.9e-5,-2.67485 -0.97865,-4.95828 -2.935835,-6.85028 -1.892017,-1.9572 -4.175442,-2.93581 -6.850282,-2.93584 l -9.786118,0 c -5.349758,3e-5 -9.949229,-1.92457 -13.798426,-5.77381 -3.849208,-3.84917 -5.773809,-8.44864 -5.773809,-13.79842 0,-5.34969 1.924601,-9.94917 5.773809,-13.79843 3.849197,-3.84914 8.448668,-5.77374 13.798426,-5.77381 l 9.786118,0 c 5.349709,7e-5 9.94918,1.92467 13.798425,5.77381 3.84916,3.84926 5.773763,8.44874 5.773813,13.79843 l -9.786121,0 c -3.9e-5,-2.67483 -0.97865,-4.95825 -2.935835,-6.85029 -1.892017,-1.95716 -4.175442,-2.93577 -6.850282,-2.93583 l -9.786118,0 c -2.674889,6e-5 -4.990934,0.97867 -6.948143,2.93583 -1.891994,1.89204 -2.837984,4.17546 -2.837974,6.85029 -1e-5,2.67491 0.94598,4.99096 2.837974,6.94814 1.957209,1.89202 4.273254,2.83801 6.948143,2.83797 l 9.786118,0 c 5.349709,4e-5 9.94918,1.92464 13.798425,5.77381 3.84916,3.84924 5.773763,8.44871 5.773813,13.79843"
         id="path3858"
         inkscape:connector-curvature="0" />
      <path
         d="m 136.21872,392.81738 -9.78612,0 c -5.34978,0 -9.94925,-1.9246 -13.79842,-5.77381 -3.84923,-3.84919 -5.77383,-8.44866 -5.77381,-13.79842 l 0,-19.57224 -9.786121,0 0,-9.78611 9.786121,0 0,-19.57224 9.78611,0 0,19.57224 9.78612,0 0,9.78611 -9.78612,0 0,19.57224 c -2e-5,2.67489 0.94597,4.99093 2.83798,6.94814 1.95719,1.89199 4.27323,2.83799 6.94814,2.83798 l 9.78612,0 0,9.78611"
         id="path3860"
         inkscape:connector-curvature="0" />
      <path
         d="m 182.79257,343.8868 0,48.93058 -9.78612,0 0,-13.50484 -6.06739,6.16525 c -4.89309,4.89307 -9.3947,7.33959 -13.50484,7.33959 -5.415,0 -10.04709,-1.89198 -13.89629,-5.67595 -3.78397,-3.84919 -5.67595,-8.48128 -5.67595,-13.89628 l 0,-9.78612 c 0,-5.41495 1.89198,-10.01442 5.67595,-13.79843 3.8492,-3.84915 8.48129,-5.77376 13.89629,-5.7738 l 29.35835,0 m -29.35835,9.78611 c -2.67489,4e-5 -4.99094,0.97865 -6.94815,2.93584 -1.89199,1.89201 -2.83798,4.17544 -2.83797,6.85028 l 0,9.78612 c -1e-5,2.67489 0.94598,4.99093 2.83797,6.94814 1.95721,1.89199 4.27326,2.83799 6.94815,2.83798 3.26201,10e-6 6.52405,-1.63101 9.78611,-4.89306 l 9.78612,-9.78612 0,-14.67918 -19.57223,0"
         id="path3862"
         inkscape:connector-curvature="0" />
      <path
         d="m 198.07908,343.8868 0,13.40698 6.16526,-6.0674 c 4.89303,-4.89301 9.36202,-7.33954 13.40698,-7.33958 5.41495,4e-5 10.01442,1.92465 13.79842,5.7738 3.84916,3.78401 5.77376,8.38348 5.77381,13.79843 l -9.78611,0 c -4e-5,-2.67484 -0.97865,-4.95827 -2.93584,-6.85028 -1.89202,-1.95719 -4.17544,-2.9358 -6.85028,-2.93584 -3.26207,4e-5 -6.5241,1.63106 -9.78612,4.89306 l -9.78612,9.78612 0,24.46529 -9.78612,0 0,-48.93058 9.78612,0"
         id="path3864"
         inkscape:connector-curvature="0" />
      <path
         d="m 287.36883,343.8868 0,9.78611 -25.63963,0 c -3.39254,4e-5 -6.29575,0.48935 -8.70964,1.46792 -2.34868,0.91341 -3.52301,2.05512 -3.523,3.42514 -10e-6,1.37009 1.17432,2.54442 3.523,3.523 2.41389,0.9134 5.3171,1.37009 8.70964,1.37006 l 2.44653,0 c 6.06736,3e-5 11.254,1.43533 15.55993,4.30589 4.30585,2.87062 6.45879,6.32838 6.45884,10.37329 -5e-5,4.04494 -2.15299,7.50269 -6.45884,10.37328 -4.30593,2.8706 -9.49257,4.30589 -15.55993,4.30589 l -25.73749,0 0,-9.78611 25.73749,0 c 3.32725,10e-6 6.19785,-0.45668 8.61179,-1.37006 2.41387,-0.9786 3.62082,-2.15293 3.62086,-3.523 -4e-5,-1.37004 -1.20699,-2.51176 -3.62086,-3.42514 -2.41394,-0.9786 -5.28454,-1.4679 -8.61179,-1.46792 l -2.44653,0 c -6.13265,2e-5 -11.3519,-1.43528 -15.65778,-4.30589 -4.24066,-2.87057 -6.36098,-6.32833 -6.36098,-10.37329 0,-4.04489 2.12032,-7.50265 6.36098,-10.37328 4.30588,-2.87055 9.52513,-4.30585 15.65778,-4.30589 l 25.63963,0"
         id="path3866"
         inkscape:connector-curvature="0" />
      <path
         d="m 321.79983,392.81738 -9.78612,0 c -5.34977,0 -9.94924,-1.9246 -13.79842,-5.77381 -3.84923,-3.84919 -5.77383,-8.44866 -5.77381,-13.79842 l 0,-19.57224 -9.78612,0 0,-9.78611 9.78612,0 0,-19.57224 9.78612,0 0,19.57224 9.78611,0 0,9.78611 -9.78611,0 0,19.57224 c -3e-5,2.67489 0.94596,4.99093 2.83797,6.94814 1.95719,1.89199 4.27324,2.83799 6.94814,2.83798 l 9.78612,0 0,9.78611"
         id="path3868"
         inkscape:connector-curvature="0" />
      <path
         d="m 331.37205,343.8868 0,13.40698 6.16526,-6.0674 c 4.89303,-4.89301 9.36202,-7.33954 13.40698,-7.33958 5.41495,4e-5 10.01442,1.92465 13.79842,5.7738 3.84916,3.78401 5.77376,8.38348 5.77381,13.79843 l -9.78612,0 c -4e-5,-2.67484 -0.97865,-4.95827 -2.93583,-6.85028 -1.89202,-1.95719 -4.17544,-2.9358 -6.85028,-2.93584 -3.26207,4e-5 -6.5241,1.63106 -9.78612,4.89306 l -9.78612,9.78612 0,24.46529 -9.78612,0 0,-48.93058 9.78612,0"
         id="path3870"
         inkscape:connector-curvature="0" />
      <path
         d="m 422.80467,392.81738 -29.35835,0 c -5.34976,0 -9.94923,-1.9246 -13.79843,-5.77381 -3.84921,-3.84919 -5.77381,-8.44866 -5.77381,-13.79842 l 0,-9.78612 c 0,-5.34971 1.9246,-9.94918 5.77381,-13.79843 3.8492,-3.84915 8.44867,-5.77376 13.79843,-5.7738 l 9.78611,0 c 5.34971,4e-5 9.94918,1.92465 13.79843,5.7738 3.84916,3.84925 5.77376,8.44872 5.77381,13.79843 l 0,9.78612 -39.14447,0 c -10e-6,2.67489 0.94598,4.99093 2.83797,6.94814 1.95721,1.89199 4.27326,2.83799 6.94815,2.83798 l 29.35835,0 0,9.78611 m -9.78612,-29.35835 c -4e-5,-2.67484 -0.97865,-4.95827 -2.93583,-6.85028 -1.89202,-1.95719 -4.17545,-2.9358 -6.85029,-2.93584 l -9.78611,0 c -2.67489,4e-5 -4.99094,0.97865 -6.94815,2.93584 -1.89199,1.89201 -2.83798,4.17544 -2.83797,6.85028 l 29.35835,0"
         id="path3872"
         inkscape:connector-curvature="0" />
      <path
         d="m 475.80708,343.8868 0,48.93058 -9.78612,0 0,-13.50484 -6.06739,6.16525 c -4.89309,4.89307 -9.3947,7.33959 -13.50484,7.33959 -5.415,0 -10.04709,-1.89198 -13.89629,-5.67595 -3.78397,-3.84919 -5.67595,-8.48128 -5.67595,-13.89628 l 0,-9.78612 c 0,-5.41495 1.89198,-10.01442 5.67595,-13.79843 3.8492,-3.84915 8.48129,-5.77376 13.89629,-5.7738 l 29.35835,0 m -29.35835,9.78611 c -2.67489,4e-5 -4.99094,0.97865 -6.94815,2.93584 -1.89199,1.89201 -2.83798,4.17544 -2.83797,6.85028 l 0,9.78612 c -10e-6,2.67489 0.94598,4.99093 2.83797,6.94814 1.95721,1.89199 4.27326,2.83799 6.94815,2.83798 3.26201,10e-6 6.52405,-1.63101 9.78611,-4.89306 l 9.78612,-9.78612 0,-14.67918 -19.57223,0"
         id="path3874"
         inkscape:connector-curvature="0" />
      <path
         d="m 519.73767,392.81738 0,-29.35835 c -4e-5,-2.67484 -0.97865,-4.95827 -2.93584,-6.85028 -1.89202,-1.95719 -4.17544,-2.9358 -6.85028,-2.93584 l 0,39.14447 -9.78612,0 0,-39.14447 -9.78612,0 0,39.14447 -9.78611,0 0,-48.93058 29.35835,0 c 5.34971,4e-5 9.94918,1.92465 13.79843,5.7738 3.84915,3.84925 5.7738,8.44872 5.7738,13.79843 l 0,29.35835"
         id="path3876"
         inkscape:connector-curvature="0"
         sodipodi:nodetypes="cccccccccccscsc" />
    </g>
    <path
       style="fill:url(#linearGradient3899);fill-opacity:1;stroke:none"
       d="m 481.42864,247.70999 8.95255,0 c 0,83.51043 -399.99264,84.02885 -399.99264,-1.24228 l 5.208806,-0.0596 c 0,71.8834 385.831284,72.72313 385.831284,1.30184 z"
       id="rect3878"
       inkscape:connector-curvature="0"
       sodipodi:nodetypes="ccccc" />
    <path
       sodipodi:nodetypes="ccccc"
       inkscape:connector-curvature="0"
       id="path3885"
       d="m 500.16189,247.80456 9.66473,0 c 0,106.58648 -431.812442,107.24815 -431.812442,-1.58555 l 5.623176,-0.0761 c 0,91.74661 416.524536,92.81837 416.524536,1.66157 z"
       style="fill:url(#linearGradient3897);fill-opacity:1;stroke:none" />
    <path
       style="fill:url(#linearGradient3895);fill-opacity:1;stroke:none"
       d="m 519.42548,247.35034 10.37691,0 c 0,139.81598 -463.63225,140.68393 -463.63225,-2.07986 l 6.037541,-0.0998 c 0,120.34962 447.217799,121.75551 447.217799,2.17958 z"
       id="path3887"
       inkscape:connector-curvature="0"
       sodipodi:nodetypes="ccccc" />
    <g
       id="g3866"
       transform="translate(-14.256705,4.2500076)"
       inkscape:export-filename="/home/benja/tmp/starstream-api/images/logo.png"
       inkscape:export-xdpi="76.672211"
       inkscape:export-ydpi="76.672211">
      <path
         id="rect3075"
         d="m 74.135439,658.85749 c -5.349758,6e-5 -9.963303,1.93211 -13.8125,5.78125 -3.849208,3.84926 -5.75,8.46281 -5.75,13.8125 0,5.34979 1.900792,9.93208 5.75,13.78125 3.849197,3.84923 8.462742,5.78128 13.8125,5.78125 l 9.78125,0 c 2.67484,3e-5 4.951731,0.98031 6.843751,2.9375 1.95718,1.89201 2.93746,4.1689 2.9375,6.84375 -4e-5,2.67489 -0.98032,4.98029 -2.9375,6.9375 -1.89202,1.89199 -4.168911,2.84376 -6.843751,2.84375 l -9.78125,0 c -2.674889,10e-6 -4.980291,-0.95176 -6.9375,-2.84375 -1.891994,-1.95721 -2.84376,-4.26261 -2.84375,-6.9375 l -9.78125,0 c 0,5.415 1.900792,10.05705 5.75,13.90625 3.849197,3.78397 8.462742,5.65625 13.8125,5.65625 l 9.78125,0 c 5.349711,0 9.963251,-1.90079 13.812501,-5.75 3.84916,-3.8492 5.74995,-8.46274 5.75,-13.8125 -5e-5,-5.34972 -1.90084,-9.96327 -5.75,-13.8125 -3.84925,-3.84917 -8.46279,-5.74996 -13.812501,-5.75 l -9.78125,0 c -2.674889,4e-5 -4.980291,-0.95172 -6.9375,-2.84375 -1.891994,-1.95717 -2.84376,-4.26258 -2.84375,-6.9375 -1e-5,-2.67482 0.951756,-4.98296 2.84375,-6.875 1.957209,-1.95717 4.262611,-2.93744 6.9375,-2.9375 l 29.250001,0 0.1875,0 428.15625,0 0,-9.78125 -428.15625,0 -0.1875,0 -29.250001,0 z"
         style="fill:url(#linearGradient3878);fill-opacity:1;stroke:none"
         inkscape:connector-curvature="0" />
      <path
         id="path3032"
         d="m 138.63541,727.36686 -9.78612,0 c -5.34978,0 -9.94925,-1.9246 -13.79842,-5.77381 -3.84923,-3.8492 -5.77383,-8.44867 -5.77381,-13.79843 l 0,-19.57223 -9.78612,0 0,-9.78612 9.78612,0 0,-19.57223 9.78611,0 0,19.57223 9.78612,0 0,9.78612 -9.78612,0 0,19.57223 c -2e-5,2.67489 0.94597,4.99094 2.83798,6.94815 1.95719,1.89199 4.27323,2.83798 6.94814,2.83797 l 9.78612,0 0,9.78612"
         style="font-size:117.43341064px;font-style:normal;font-variant:normal;font-weight:normal;font-stretch:normal;line-height:125%;letter-spacing:0px;word-spacing:0px;fill:#ffffff;fill-opacity:1;stroke:none;font-family:ProFontWindows;-inkscape-font-specification:ProFontWindows"
         inkscape:connector-curvature="0" />
      <path
         id="path3034"
         d="m 185.20926,678.43627 0,48.93059 -9.78612,0 0,-13.50484 -6.06739,6.16525 c -4.89309,4.89306 -9.3947,7.33959 -13.50484,7.33959 -5.415,0 -10.04709,-1.89198 -13.89629,-5.67595 -3.78397,-3.8492 -5.67595,-8.48129 -5.67595,-13.89629 l 0,-9.78611 c 0,-5.41495 1.89198,-10.01442 5.67595,-13.79843 3.8492,-3.84916 8.48129,-5.77376 13.89629,-5.77381 l 29.35835,0 m -29.35835,9.78612 c -2.67489,4e-5 -4.99094,0.97865 -6.94815,2.93583 -1.89199,1.89202 -2.83798,4.17545 -2.83797,6.85029 l 0,9.78611 c -10e-6,2.67489 0.94598,4.99094 2.83797,6.94815 1.95721,1.89199 4.27326,2.83798 6.94815,2.83797 3.26201,10e-6 6.52405,-1.63101 9.78611,-4.89306 l 9.78612,-9.78611 0,-14.67918 -19.57223,0"
         style="font-size:117.43341064px;font-style:normal;font-variant:normal;font-weight:normal;font-stretch:normal;line-height:125%;letter-spacing:0px;word-spacing:0px;fill:#ffffff;fill-opacity:1;stroke:none;font-family:ProFontWindows;-inkscape-font-specification:ProFontWindows"
         inkscape:connector-curvature="0" />
      <path
         id="path3036"
         d="m 200.49577,678.43627 0,13.40698 6.16526,-6.06739 c 4.89303,-4.89301 9.36202,-7.33954 13.40698,-7.33959 5.41495,5e-5 10.01442,1.92465 13.79842,5.77381 3.84916,3.78401 5.77376,8.38348 5.77381,13.79843 l -9.78611,0 c -4e-5,-2.67484 -0.97865,-4.95827 -2.93584,-6.85029 -1.89202,-1.95718 -4.17544,-2.93579 -6.85028,-2.93583 -3.26207,4e-5 -6.5241,1.63106 -9.78612,4.89306 l -9.78612,9.78612 0,24.46529 -9.78612,0 0,-48.93059 9.78612,0"
         style="font-size:117.43341064px;font-style:normal;font-variant:normal;font-weight:normal;font-stretch:normal;line-height:125%;letter-spacing:0px;word-spacing:0px;fill:#ffffff;fill-opacity:1;stroke:none;font-family:ProFontWindows;-inkscape-font-specification:ProFontWindows"
         inkscape:connector-curvature="0" />
      <path
         id="path3038"
         d="m 289.78552,678.43627 0,9.78612 -25.63963,0 c -3.39254,4e-5 -6.29575,0.48934 -8.70964,1.46792 -2.34868,0.9134 -3.52301,2.05512 -3.523,3.42514 -1e-5,1.37009 1.17432,2.54442 3.523,3.523 2.41389,0.9134 5.3171,1.37009 8.70964,1.37006 l 2.44653,0 c 6.06736,3e-5 11.254,1.43532 15.55993,4.30589 4.30585,2.87061 6.45879,6.32837 6.45884,10.37328 -5e-5,4.04494 -2.15299,7.5027 -6.45884,10.37329 -4.30593,2.87059 -9.49257,4.30589 -15.55993,4.30589 l -25.73749,0 0,-9.78612 25.73749,0 c 3.32725,10e-6 6.19785,-0.45667 8.61179,-1.37006 2.41387,-0.97859 3.62082,-2.15293 3.62086,-3.523 -4e-5,-1.37004 -1.20699,-2.51175 -3.62086,-3.42514 -2.41394,-0.97859 -5.28454,-1.4679 -8.61179,-1.46792 l -2.44653,0 c -6.13265,2e-5 -11.3519,-1.43527 -15.65778,-4.30589 -4.24066,-2.87057 -6.36098,-6.32832 -6.36098,-10.37328 0,-4.04489 2.12032,-7.50265 6.36098,-10.37329 4.30588,-2.87054 9.52513,-4.30584 15.65778,-4.30589 l 25.63963,0"
         style="font-size:117.43341064px;font-style:normal;font-variant:normal;font-weight:normal;font-stretch:normal;line-height:125%;letter-spacing:0px;word-spacing:0px;fill:#ffffff;fill-opacity:1;stroke:none;font-family:ProFontWindows;-inkscape-font-specification:ProFontWindows"
         inkscape:connector-curvature="0" />
      <path
         sodipodi:nodetypes="csssccccccccccccscc"
         inkscape:connector-curvature="0"
         id="path3040"
         d="m 324.21652,727.36686 -9.78612,0 c -5.34977,0 -9.94924,-1.9246 -13.79842,-5.77381 -3.84923,-3.8492 -5.77383,-8.44867 -5.77381,-13.79843 l 0,-19.57223 -9.78612,0 0,-9.78612 9.78612,0 0,-9.9379 9.78612,0 0,9.9379 9.78611,0 0,9.78612 -9.78611,0 0,19.57223 c -3e-5,2.67489 0.94596,4.99094 2.83797,6.94815 1.95719,1.89199 4.27324,2.83798 6.94814,2.83797 l 9.78612,0 0,9.78612"
         style="font-size:117.43341064px;font-style:normal;font-variant:normal;font-weight:normal;font-stretch:normal;line-height:125%;letter-spacing:0px;word-spacing:0px;fill:#ffffff;fill-opacity:1;stroke:none;font-family:ProFontWindows;-inkscape-font-specification:ProFontWindows" />
      <path
         id="path3042"
         d="m 333.78874,678.43627 0,13.40698 6.16526,-6.06739 c 4.89303,-4.89301 9.36202,-7.33954 13.40698,-7.33959 5.41495,5e-5 10.01442,1.92465 13.79842,5.77381 3.84916,3.78401 5.77376,8.38348 5.77381,13.79843 l -9.78612,0 c -4e-5,-2.67484 -0.97865,-4.95827 -2.93583,-6.85029 -1.89202,-1.95718 -4.17544,-2.93579 -6.85028,-2.93583 -3.26207,4e-5 -6.5241,1.63106 -9.78612,4.89306 l -9.78612,9.78612 0,24.46529 -9.78612,0 0,-48.93059 9.78612,0"
         style="font-size:117.43341064px;font-style:normal;font-variant:normal;font-weight:normal;font-stretch:normal;line-height:125%;letter-spacing:0px;word-spacing:0px;fill:#ffffff;fill-opacity:1;stroke:none;font-family:ProFontWindows;-inkscape-font-specification:ProFontWindows"
         inkscape:connector-curvature="0" />
      <path
         id="path3044"
         d="m 425.22136,727.36686 -29.35835,0 c -5.34976,0 -9.94923,-1.9246 -13.79843,-5.77381 -3.84921,-3.8492 -5.77381,-8.44867 -5.77381,-13.79843 l 0,-9.78611 c 0,-5.34971 1.9246,-9.94918 5.77381,-13.79843 3.8492,-3.84916 8.44867,-5.77376 13.79843,-5.77381 l 9.78611,0 c 5.34971,5e-5 9.94918,1.92465 13.79843,5.77381 3.84916,3.84925 5.77376,8.44872 5.77381,13.79843 l 0,9.78611 -39.14447,0 c -10e-6,2.67489 0.94598,4.99094 2.83797,6.94815 1.95721,1.89199 4.27326,2.83798 6.94815,2.83797 l 29.35835,0 0,9.78612 m -9.78612,-29.35835 c -4e-5,-2.67484 -0.97865,-4.95827 -2.93583,-6.85029 -1.89202,-1.95718 -4.17545,-2.93579 -6.85029,-2.93583 l -9.78611,0 c -2.67489,4e-5 -4.99094,0.97865 -6.94815,2.93583 -1.89199,1.89202 -2.83798,4.17545 -2.83797,6.85029 l 29.35835,0"
         style="font-size:117.43341064px;font-style:normal;font-variant:normal;font-weight:normal;font-stretch:normal;line-height:125%;letter-spacing:0px;word-spacing:0px;fill:#ffffff;fill-opacity:1;stroke:none;font-family:ProFontWindows;-inkscape-font-specification:ProFontWindows"
         inkscape:connector-curvature="0" />
      <path
         id="path3046"
         d="m 478.22377,678.43627 0,48.93059 -9.78612,0 0,-13.50484 -6.06739,6.16525 c -4.89309,4.89306 -9.3947,7.33959 -13.50484,7.33959 -5.415,0 -10.04709,-1.89198 -13.89629,-5.67595 -3.78397,-3.8492 -5.67595,-8.48129 -5.67595,-13.89629 l 0,-9.78611 c 0,-5.41495 1.89198,-10.01442 5.67595,-13.79843 3.8492,-3.84916 8.48129,-5.77376 13.89629,-5.77381 l 29.35835,0 m -29.35835,9.78612 c -2.67489,4e-5 -4.99094,0.97865 -6.94815,2.93583 -1.89199,1.89202 -2.83798,4.17545 -2.83797,6.85029 l 0,9.78611 c -10e-6,2.67489 0.94598,4.99094 2.83797,6.94815 1.95721,1.89199 4.27326,2.83798 6.94815,2.83797 3.26201,10e-6 6.52405,-1.63101 9.78611,-4.89306 l 9.78612,-9.78611 0,-14.67918 -19.57223,0"
         style="font-size:117.43341064px;font-style:normal;font-variant:normal;font-weight:normal;font-stretch:normal;line-height:125%;letter-spacing:0px;word-spacing:0px;fill:#ffffff;fill-opacity:1;stroke:none;font-family:ProFontWindows;-inkscape-font-specification:ProFontWindows"
         inkscape:connector-curvature="0" />
      <path
         id="path3048"
         d="m 531.94047,727.36686 -9.78611,0 0,-29.35835 c -4e-5,-2.67484 -0.97865,-4.95827 -2.93584,-6.85029 -1.89202,-1.95718 -4.17544,-2.93579 -6.85028,-2.93583 l 0,39.14447 -9.78612,0 0,-39.14447 -9.78612,0 0,39.14447 -9.78611,0 0,-48.93059 29.35835,0 c 5.34971,5e-5 9.94918,1.92465 13.79843,5.77381 3.84915,3.84925 5.77376,8.44872 5.7738,13.79843 l 0,29.35835"
         style="font-size:117.43341064px;font-style:normal;font-variant:normal;font-weight:normal;font-stretch:normal;line-height:125%;letter-spacing:0px;word-spacing:0px;fill:#ffffff;fill-opacity:1;stroke:none;font-family:ProFontWindows;-inkscape-font-specification:ProFontWindows"
         inkscape:connector-curvature="0" />
    </g>
    <path
       style="fill:url(#linearGradient3213);fill-opacity:1;stroke:none"
       d="m 71.71875,434.875 c -5.349758,6e-5 -9.963303,1.93211 -13.8125,5.78125 -3.849208,3.84926 -5.75,8.46281 -5.75,13.8125 0,5.34979 1.900792,9.93208 5.75,13.78125 3.849197,3.84923 8.462742,5.78128 13.8125,5.78125 l 9.78125,0 c 2.67484,3e-5 4.951733,0.98031 6.84375,2.9375 1.957185,1.89201 2.937461,4.1689 2.9375,6.84375 -3.9e-5,2.67489 -0.980315,4.98029 -2.9375,6.9375 -1.892017,1.89199 -4.16891,2.84376 -6.84375,2.84375 l -9.78125,0 c -2.674889,10e-6 -4.980291,-0.95176 -6.9375,-2.84375 -1.891994,-1.95721 -2.84376,-4.26261 -2.84375,-6.9375 l -9.78125,0 c 0,5.415 1.900792,10.05705 5.75,13.90625 3.849197,3.78397 8.462742,5.65625 13.8125,5.65625 l 9.78125,0 c 5.349709,0 9.963255,-1.90079 13.8125,-5.75 3.84916,-3.8492 5.74995,-8.46274 5.75,-13.8125 -5e-5,-5.34972 -1.90084,-9.96327 -5.75,-13.8125 -3.849245,-3.84917 -8.462791,-5.74996 -13.8125,-5.75 l -9.78125,0 c -2.674889,4e-5 -4.980291,-0.95172 -6.9375,-2.84375 -1.891994,-1.95717 -2.84376,-4.26258 -2.84375,-6.9375 -1e-5,-2.67482 0.951756,-4.98296 2.84375,-6.875 1.957209,-1.95717 4.262611,-2.93744 6.9375,-2.9375 157.9575,0 321.78392,0 457.59375,0 l 0,-9.78125 c -151.01643,0 -308.99345,0 -457.59375,0 z"
       id="rect3072"
       inkscape:connector-curvature="0"
       sodipodi:nodetypes="ccssscccsssccccsssccsccsccccc" />
    <path
       style="font-size:117.43341064px;font-style:normal;font-variant:normal;font-weight:normal;font-stretch:normal;line-height:125%;letter-spacing:0px;word-spacing:0px;fill:#000000;fill-opacity:1;stroke:none;font-family:ProFontWindows;-inkscape-font-specification:ProFontWindows"
       inkscape:connector-curvature="0"
       id="path3078"
       d="m 136.21872,503.38443 -9.78612,0 c -5.34978,0 -9.94925,-1.9246 -13.79842,-5.77381 -3.84923,-3.8492 -5.77383,-8.44867 -5.77381,-13.79843 l 0,-19.57223 -9.786121,0 0,-9.78612 9.786121,0 0,-9.84951 9.78611,0 0,9.84951 9.78612,0 0,9.78612 -9.78612,0 0,19.57223 c -2e-5,2.67489 0.94597,4.99094 2.83798,6.94815 1.95719,1.89199 4.27323,2.83798 6.94814,2.83797 l 9.78612,0 0,9.78612"
       sodipodi:nodetypes="csssccccccccccscscc" />
    <path
       style="font-size:117.43341064px;font-style:normal;font-variant:normal;font-weight:normal;font-stretch:normal;line-height:125%;letter-spacing:0px;word-spacing:0px;fill:#000000;fill-opacity:1;stroke:none;font-family:ProFontWindows;-inkscape-font-specification:ProFontWindows"
       inkscape:connector-curvature="0"
       id="path3080"
       d="m 182.79257,454.45384 0,48.93059 -9.78612,0 0,-13.50484 -6.06739,6.16525 c -4.89309,4.89306 -9.3947,7.33959 -13.50484,7.33959 -5.415,0 -10.04709,-1.89198 -13.89629,-5.67595 -3.78397,-3.8492 -5.67595,-8.48129 -5.67595,-13.89629 l 0,-9.78611 c 0,-5.41495 1.89198,-10.01442 5.67595,-13.79843 3.8492,-3.84916 8.48129,-5.77376 13.89629,-5.77381 l 29.35835,0 m -29.35835,9.78612 c -2.67489,4e-5 -4.99094,0.97865 -6.94815,2.93583 -1.89199,1.89202 -2.83798,4.17545 -2.83797,6.85029 l 0,9.78611 c -1e-5,2.67489 0.94598,4.99094 2.83797,6.94815 1.95721,1.89199 4.27326,2.83798 6.94815,2.83797 3.26201,10e-6 6.52405,-1.63101 9.78611,-4.89306 l 9.78612,-9.78611 0,-14.67918 -19.57223,0" />
    <path
       style="font-size:117.43341064px;font-style:normal;font-variant:normal;font-weight:normal;font-stretch:normal;line-height:125%;letter-spacing:0px;word-spacing:0px;fill:#000000;fill-opacity:1;stroke:none;font-family:ProFontWindows;-inkscape-font-specification:ProFontWindows"
       inkscape:connector-curvature="0"
       id="path3082"
       d="m 198.07908,454.45384 0,13.40698 6.16526,-6.06739 c 4.89303,-4.89301 9.36202,-7.33954 13.40698,-7.33959 5.41495,5e-5 10.01442,1.92465 13.79842,5.77381 3.84916,3.78401 5.77376,8.38348 5.77381,13.79843 l -9.78611,0 c -4e-5,-2.67484 -0.97865,-4.95827 -2.93584,-6.85029 -1.89202,-1.95718 -4.17544,-2.93579 -6.85028,-2.93583 -3.26207,4e-5 -6.5241,1.63106 -9.78612,4.89306 l -9.78612,9.78612 0,24.46529 -9.78612,0 0,-48.93059 9.78612,0" />
    <path
       style="font-size:117.43341064px;font-style:normal;font-variant:normal;font-weight:normal;font-stretch:normal;line-height:125%;letter-spacing:0px;word-spacing:0px;fill:#000000;fill-opacity:1;stroke:none;font-family:ProFontWindows;-inkscape-font-specification:ProFontWindows"
       inkscape:connector-curvature="0"
       id="path3084"
       d="m 287.36883,454.45384 0,9.78612 -25.63963,0 c -3.39254,4e-5 -6.29575,0.48934 -8.70964,1.46792 -2.34868,0.9134 -3.52301,2.05512 -3.523,3.42514 -10e-6,1.37009 1.17432,2.54442 3.523,3.523 2.41389,0.9134 5.3171,1.37009 8.70964,1.37006 l 2.44653,0 c 6.06736,3e-5 11.254,1.43532 15.55993,4.30589 4.30585,2.87061 6.45879,6.32837 6.45884,10.37328 -5e-5,4.04494 -2.15299,7.5027 -6.45884,10.37329 -4.30593,2.87059 -9.49257,4.30589 -15.55993,4.30589 l -25.73749,0 0,-9.78612 25.73749,0 c 3.32725,10e-6 6.19785,-0.45667 8.61179,-1.37006 2.41387,-0.97859 3.62082,-2.15293 3.62086,-3.523 -4e-5,-1.37004 -1.20699,-2.51175 -3.62086,-3.42514 -2.41394,-0.97859 -5.28454,-1.4679 -8.61179,-1.46792 l -2.44653,0 c -6.13265,2e-5 -11.3519,-1.43527 -15.65778,-4.30589 -4.24066,-2.87057 -6.36098,-6.32832 -6.36098,-10.37328 0,-4.04489 2.12032,-7.50265 6.36098,-10.37329 4.30588,-2.87054 9.52513,-4.30584 15.65778,-4.30589 l 25.63963,0" />
    <path
       style="font-size:117.43341064px;font-style:normal;font-variant:normal;font-weight:normal;font-stretch:normal;line-height:125%;letter-spacing:0px;word-spacing:0px;fill:#000000;fill-opacity:1;stroke:none;font-family:ProFontWindows;-inkscape-font-specification:ProFontWindows"
       sodipodi:nodetypes="csssccccccccccccscc"
       inkscape:connector-curvature="0"
       id="path3086"
       d="m 321.79983,503.38443 -9.78612,0 c -5.34977,0 -9.94924,-1.9246 -13.79842,-5.77381 -3.84923,-3.8492 -5.77383,-8.44867 -5.77381,-13.79843 l 0,-19.57223 -9.78612,0 0,-9.78612 9.78612,0 0,-9.9379 9.78612,0 0,9.9379 9.78611,0 0,9.78612 -9.78611,0 0,19.57223 c -3e-5,2.67489 0.94596,4.99094 2.83797,6.94815 1.95719,1.89199 4.27324,2.83798 6.94814,2.83797 l 9.78612,0 0,9.78612" />
    <path
       style="font-size:117.43341064px;font-style:normal;font-variant:normal;font-weight:normal;font-stretch:normal;line-height:125%;letter-spacing:0px;word-spacing:0px;fill:#000000;fill-opacity:1;stroke:none;font-family:ProFontWindows;-inkscape-font-specification:ProFontWindows"
       inkscape:connector-curvature="0"
       id="path3088"
       d="m 331.37205,454.45384 0,13.40698 6.16526,-6.06739 c 4.89303,-4.89301 9.36202,-7.33954 13.40698,-7.33959 5.41495,5e-5 10.01442,1.92465 13.79842,5.77381 3.84916,3.78401 5.77376,8.38348 5.77381,13.79843 l -9.78612,0 c -4e-5,-2.67484 -0.97865,-4.95827 -2.93583,-6.85029 -1.89202,-1.95718 -4.17544,-2.93579 -6.85028,-2.93583 -3.26207,4e-5 -6.5241,1.63106 -9.78612,4.89306 l -9.78612,9.78612 0,24.46529 -9.78612,0 0,-48.93059 9.78612,0" />
    <path
       style="font-size:117.43341064px;font-style:normal;font-variant:normal;font-weight:normal;font-stretch:normal;line-height:125%;letter-spacing:0px;word-spacing:0px;fill:#000000;fill-opacity:1;stroke:none;font-family:ProFontWindows;-inkscape-font-specification:ProFontWindows"
       inkscape:connector-curvature="0"
       id="path3090"
       d="m 422.80467,503.38443 -29.35835,0 c -5.34976,0 -9.94923,-1.9246 -13.79843,-5.77381 -3.84921,-3.8492 -5.77381,-8.44867 -5.77381,-13.79843 l 0,-9.78611 c 0,-5.34971 1.9246,-9.94918 5.77381,-13.79843 3.8492,-3.84916 8.44867,-5.77376 13.79843,-5.77381 l 9.78611,0 c 5.34971,5e-5 9.94918,1.92465 13.79843,5.77381 3.84916,3.84925 5.77376,8.44872 5.77381,13.79843 l 0,9.78611 -39.14447,0 c -10e-6,2.67489 0.94598,4.99094 2.83797,6.94815 1.95721,1.89199 4.27326,2.83798 6.94815,2.83797 l 29.35835,0 0,9.78612 m -9.78612,-29.35835 c -4e-5,-2.67484 -0.97865,-4.95827 -2.93583,-6.85029 -1.89202,-1.95718 -4.17545,-2.93579 -6.85029,-2.93583 l -9.78611,0 c -2.67489,4e-5 -4.99094,0.97865 -6.94815,2.93583 -1.89199,1.89202 -2.83798,4.17545 -2.83797,6.85029 l 29.35835,0" />
    <path
       style="font-size:117.43341064px;font-style:normal;font-variant:normal;font-weight:normal;font-stretch:normal;line-height:125%;letter-spacing:0px;word-spacing:0px;fill:#000000;fill-opacity:1;stroke:none;font-family:ProFontWindows;-inkscape-font-specification:ProFontWindows"
       inkscape:connector-curvature="0"
       id="path3092"
       d="m 475.80708,454.45384 0,48.93059 -9.78612,0 0,-13.50484 -6.06739,6.16525 c -4.89309,4.89306 -9.3947,7.33959 -13.50484,7.33959 -5.415,0 -10.04709,-1.89198 -13.89629,-5.67595 -3.78397,-3.8492 -5.67595,-8.48129 -5.67595,-13.89629 l 0,-9.78611 c 0,-5.41495 1.89198,-10.01442 5.67595,-13.79843 3.8492,-3.84916 8.48129,-5.77376 13.89629,-5.77381 l 29.35835,0 m -29.35835,9.78612 c -2.67489,4e-5 -4.99094,0.97865 -6.94815,2.93583 -1.89199,1.89202 -2.83798,4.17545 -2.83797,6.85029 l 0,9.78611 c -10e-6,2.67489 0.94598,4.99094 2.83797,6.94815 1.95721,1.89199 4.27326,2.83798 6.94815,2.83797 3.26201,10e-6 6.52405,-1.63101 9.78611,-4.89306 l 9.78612,-9.78611 0,-14.67918 -19.57223,0" />
    <path
       style="font-size:117.43341064px;font-style:normal;font-variant:normal;font-weight:normal;font-stretch:normal;line-height:125%;letter-spacing:0px;word-spacing:0px;fill:#000000;fill-opacity:1;stroke:none;font-family:ProFontWindows;-inkscape-font-specification:ProFontWindows"
       inkscape:connector-curvature="0"
       id="path3094"
       d="m 529.52378,503.38443 -9.78611,0 0,-29.35835 c -4e-5,-2.67484 -0.97865,-4.95827 -2.93584,-6.85029 -1.89202,-1.95718 -4.17544,-2.93579 -6.85028,-2.93583 l 0,39.14447 -9.78612,0 0,-39.14447 -9.78612,0 0,39.14447 -9.78611,0 0,-48.93059 29.35835,0 c 5.34971,5e-5 9.94918,1.92465 13.79843,5.77381 3.84915,3.84925 5.77376,8.44872 5.7738,13.79843 l 0,29.35835" />
    <path
       sodipodi:nodetypes="ccssscccssccssccsccsccccc"
       inkscape:connector-curvature="0"
       id="path3215"
       d="m 71.71875,545.78059 c -5.349758,6e-5 -9.963303,1.93211 -13.8125,5.78125 -3.849208,3.84926 -5.75,8.46281 -5.75,13.8125 0,5.34979 1.900792,9.93208 5.75,13.78125 3.849197,3.84923 8.462742,5.78128 13.8125,5.78125 l 9.78125,0 c 2.67484,3e-5 4.951733,0.98031 6.84375,2.9375 1.957185,1.89201 2.937461,4.1689 2.9375,6.84375 -3.9e-5,2.67489 -0.980315,4.98029 -2.9375,6.9375 -1.892017,1.89199 -4.16891,2.84375 -6.84375,2.84375 l -29.04991,0 c 0,5.86804 0,6.25416 0,9.78125 l 29.04991,0 c 5.349709,0 9.963255,-1.90079 13.8125,-5.75 3.84916,-3.8492 5.74995,-8.46274 5.75,-13.8125 -5e-5,-5.34972 -1.90084,-9.96327 -5.75,-13.8125 -3.849245,-3.84917 -8.462791,-5.74996 -13.8125,-5.75 l -9.78125,0 c -2.674889,4e-5 -4.980291,-0.95172 -6.9375,-2.84375 -1.891994,-1.95717 -2.84376,-4.26258 -2.84375,-6.9375 -1e-5,-2.67482 0.951756,-4.98296 2.84375,-6.875 1.957209,-1.95717 4.262611,-2.93744 6.9375,-2.9375 157.9575,0 321.78392,0 457.59375,0 l 0,-9.78125 c -151.01643,0 -308.99345,0 -457.59375,0 z"
       style="fill:url(#linearGradient3235);fill-opacity:1;stroke:none" />
    <path
       sodipodi:nodetypes="csssccccccccccscscc"
       d="m 136.21872,614.29002 -9.78612,0 c -5.34978,0 -9.94925,-1.9246 -13.79842,-5.77381 -3.84923,-3.8492 -5.77383,-8.44867 -5.77381,-13.79843 l 0,-19.57223 -9.786121,0 0,-9.78612 9.786121,0 0,-9.84951 9.78611,0 0,9.84951 9.78612,0 0,9.78612 -9.78612,0 0,19.57223 c -2e-5,2.67489 0.94597,4.99094 2.83798,6.94815 1.95719,1.89199 4.27323,2.83798 6.94814,2.83797 l 9.78612,0 0,9.78612"
       id="path3217"
       inkscape:connector-curvature="0"
       style="font-size:117.43341064px;font-style:normal;font-variant:normal;font-weight:normal;font-stretch:normal;line-height:125%;letter-spacing:0px;word-spacing:0px;fill:#000000;fill-opacity:1;stroke:none;font-family:ProFontWindows;-inkscape-font-specification:ProFontWindows" />
    <path
       d="m 182.79257,565.35943 0,48.93059 -9.78612,0 0,-13.50484 -6.06739,6.16525 c -4.89309,4.89306 -9.3947,7.33959 -13.50484,7.33959 -5.415,0 -10.04709,-1.89198 -13.89629,-5.67595 -3.78397,-3.8492 -5.67595,-8.48129 -5.67595,-13.89629 l 0,-9.78611 c 0,-5.41495 1.89198,-10.01442 5.67595,-13.79843 3.8492,-3.84916 8.48129,-5.77376 13.89629,-5.77381 l 29.35835,0 m -29.35835,9.78612 c -2.67489,4e-5 -4.99094,0.97865 -6.94815,2.93583 -1.89199,1.89202 -2.83798,4.17545 -2.83797,6.85029 l 0,9.78611 c -1e-5,2.67489 0.94598,4.99094 2.83797,6.94815 1.95721,1.89199 4.27326,2.83798 6.94815,2.83797 3.26201,10e-6 6.52405,-1.63101 9.78611,-4.89306 l 9.78612,-9.78611 0,-14.67918 -19.57223,0"
       id="path3219"
       inkscape:connector-curvature="0"
       style="font-size:117.43341064px;font-style:normal;font-variant:normal;font-weight:normal;font-stretch:normal;line-height:125%;letter-spacing:0px;word-spacing:0px;fill:#000000;fill-opacity:1;stroke:none;font-family:ProFontWindows;-inkscape-font-specification:ProFontWindows" />
    <path
       d="m 198.07908,565.35943 0,13.40698 6.16526,-6.06739 c 4.89303,-4.89301 9.36202,-7.33954 13.40698,-7.33959 5.41495,5e-5 10.01442,1.92465 13.79842,5.77381 3.84916,3.78401 5.77376,8.38348 5.77381,13.79843 l -9.78611,0 c -4e-5,-2.67484 -0.97865,-4.95827 -2.93584,-6.85029 -1.89202,-1.95718 -4.17544,-2.93579 -6.85028,-2.93583 -3.26207,4e-5 -6.5241,1.63106 -9.78612,4.89306 l -9.78612,9.78612 0,24.46529 -9.78612,0 0,-48.93059 9.78612,0"
       id="path3221"
       inkscape:connector-curvature="0"
       style="font-size:117.43341064px;font-style:normal;font-variant:normal;font-weight:normal;font-stretch:normal;line-height:125%;letter-spacing:0px;word-spacing:0px;fill:#000000;fill-opacity:1;stroke:none;font-family:ProFontWindows;-inkscape-font-specification:ProFontWindows" />
    <path
       d="m 287.36883,565.35943 0,9.78612 -25.63963,0 c -3.39254,4e-5 -6.29575,0.48934 -8.70964,1.46792 -2.34868,0.9134 -3.52301,2.05512 -3.523,3.42514 -10e-6,1.37009 1.17432,2.54442 3.523,3.523 2.41389,0.9134 5.3171,1.37009 8.70964,1.37006 l 2.44653,0 c 6.06736,3e-5 11.254,1.43532 15.55993,4.30589 4.30585,2.87061 6.45879,6.32837 6.45884,10.37328 -5e-5,4.04494 -2.15299,7.5027 -6.45884,10.37329 -4.30593,2.87059 -9.49257,4.30589 -15.55993,4.30589 l -25.73749,0 0,-9.78612 25.73749,0 c 3.32725,10e-6 6.19785,-0.45667 8.61179,-1.37006 2.41387,-0.97859 3.62082,-2.15293 3.62086,-3.523 -4e-5,-1.37004 -1.20699,-2.51175 -3.62086,-3.42514 -2.41394,-0.97859 -5.28454,-1.4679 -8.61179,-1.46792 l -2.44653,0 c -6.13265,2e-5 -11.3519,-1.43527 -15.65778,-4.30589 -4.24066,-2.87057 -6.36098,-6.32832 -6.36098,-10.37328 0,-4.04489 2.12032,-7.50265 6.36098,-10.37329 4.30588,-2.87054 9.52513,-4.30584 15.65778,-4.30589 l 25.63963,0"
       id="path3223"
       inkscape:connector-curvature="0"
       style="font-size:117.43341064px;font-style:normal;font-variant:normal;font-weight:normal;font-stretch:normal;line-height:125%;letter-spacing:0px;word-spacing:0px;fill:#000000;fill-opacity:1;stroke:none;font-family:ProFontWindows;-inkscape-font-specification:ProFontWindows" />
    <path
       d="m 321.79983,614.29002 -9.78612,0 c -5.34977,0 -9.94924,-1.9246 -13.79842,-5.77381 -3.84923,-3.8492 -5.77383,-8.44867 -5.77381,-13.79843 l 0,-19.57223 -9.78612,0 0,-9.78612 9.78612,0 0,-9.9379 9.78612,0 0,9.9379 9.78611,0 0,9.78612 -9.78611,0 0,19.57223 c -3e-5,2.67489 0.94596,4.99094 2.83797,6.94815 1.95719,1.89199 4.27324,2.83798 6.94814,2.83797 l 9.78612,0 0,9.78612"
       id="path3225"
       inkscape:connector-curvature="0"
       sodipodi:nodetypes="csssccccccccccccscc"
       style="font-size:117.43341064px;font-style:normal;font-variant:normal;font-weight:normal;font-stretch:normal;line-height:125%;letter-spacing:0px;word-spacing:0px;fill:#000000;fill-opacity:1;stroke:none;font-family:ProFontWindows;-inkscape-font-specification:ProFontWindows" />
    <path
       d="m 331.37205,565.35943 0,13.40698 6.16526,-6.06739 c 4.89303,-4.89301 9.36202,-7.33954 13.40698,-7.33959 5.41495,5e-5 10.01442,1.92465 13.79842,5.77381 3.84916,3.78401 5.77376,8.38348 5.77381,13.79843 l -9.78612,0 c -4e-5,-2.67484 -0.97865,-4.95827 -2.93583,-6.85029 -1.89202,-1.95718 -4.17544,-2.93579 -6.85028,-2.93583 -3.26207,4e-5 -6.5241,1.63106 -9.78612,4.89306 l -9.78612,9.78612 0,24.46529 -9.78612,0 0,-48.93059 9.78612,0"
       id="path3227"
       inkscape:connector-curvature="0"
       style="font-size:117.43341064px;font-style:normal;font-variant:normal;font-weight:normal;font-stretch:normal;line-height:125%;letter-spacing:0px;word-spacing:0px;fill:#000000;fill-opacity:1;stroke:none;font-family:ProFontWindows;-inkscape-font-specification:ProFontWindows" />
    <path
       d="m 422.80467,614.29002 -29.35835,0 c -5.34976,0 -9.94923,-1.9246 -13.79843,-5.77381 -3.84921,-3.8492 -5.77381,-8.44867 -5.77381,-13.79843 l 0,-9.78611 c 0,-5.34971 1.9246,-9.94918 5.77381,-13.79843 3.8492,-3.84916 8.44867,-5.77376 13.79843,-5.77381 l 9.78611,0 c 5.34971,5e-5 9.94918,1.92465 13.79843,5.77381 3.84916,3.84925 5.77376,8.44872 5.77381,13.79843 l 0,9.78611 -39.14447,0 c -10e-6,2.67489 0.94598,4.99094 2.83797,6.94815 1.95721,1.89199 4.27326,2.83798 6.94815,2.83797 l 29.35835,0 0,9.78612 m -9.78612,-29.35835 c -4e-5,-2.67484 -0.97865,-4.95827 -2.93583,-6.85029 -1.89202,-1.95718 -4.17545,-2.93579 -6.85029,-2.93583 l -9.78611,0 c -2.67489,4e-5 -4.99094,0.97865 -6.94815,2.93583 -1.89199,1.89202 -2.83798,4.17545 -2.83797,6.85029 l 29.35835,0"
       id="path3229"
       inkscape:connector-curvature="0"
       style="font-size:117.43341064px;font-style:normal;font-variant:normal;font-weight:normal;font-stretch:normal;line-height:125%;letter-spacing:0px;word-spacing:0px;fill:#000000;fill-opacity:1;stroke:none;font-family:ProFontWindows;-inkscape-font-specification:ProFontWindows" />
    <path
       d="m 475.80708,565.35943 0,48.93059 -9.78612,0 0,-13.50484 -6.06739,6.16525 c -4.89309,4.89306 -9.3947,7.33959 -13.50484,7.33959 -5.415,0 -10.04709,-1.89198 -13.89629,-5.67595 -3.78397,-3.8492 -5.67595,-8.48129 -5.67595,-13.89629 l 0,-9.78611 c 0,-5.41495 1.89198,-10.01442 5.67595,-13.79843 3.8492,-3.84916 8.48129,-5.77376 13.89629,-5.77381 l 29.35835,0 m -29.35835,9.78612 c -2.67489,4e-5 -4.99094,0.97865 -6.94815,2.93583 -1.89199,1.89202 -2.83798,4.17545 -2.83797,6.85029 l 0,9.78611 c -10e-6,2.67489 0.94598,4.99094 2.83797,6.94815 1.95721,1.89199 4.27326,2.83798 6.94815,2.83797 3.26201,10e-6 6.52405,-1.63101 9.78611,-4.89306 l 9.78612,-9.78611 0,-14.67918 -19.57223,0"
       id="path3231"
       inkscape:connector-curvature="0"
       style="font-size:117.43341064px;font-style:normal;font-variant:normal;font-weight:normal;font-stretch:normal;line-height:125%;letter-spacing:0px;word-spacing:0px;fill:#000000;fill-opacity:1;stroke:none;font-family:ProFontWindows;-inkscape-font-specification:ProFontWindows" />
    <path
       d="m 529.52378,614.29002 -9.78611,0 0,-29.35835 c -4e-5,-2.67484 -0.97865,-4.95827 -2.93584,-6.85029 -1.89202,-1.95718 -4.17544,-2.93579 -6.85028,-2.93583 l 0,39.14447 -9.78612,0 0,-39.14447 -9.78612,0 0,39.14447 -9.78611,0 0,-48.93059 29.35835,0 c 5.34971,5e-5 9.94918,1.92465 13.79843,5.77381 3.84915,3.84925 5.77376,8.44872 5.7738,13.79843 l 0,29.35835"
       id="path3233"
       inkscape:connector-curvature="0"
       style="font-size:117.43341064px;font-style:normal;font-variant:normal;font-weight:normal;font-stretch:normal;line-height:125%;letter-spacing:0px;word-spacing:0px;fill:#000000;fill-opacity:1;stroke:none;font-family:ProFontWindows;-inkscape-font-specification:ProFontWindows" />
  </g>
</svg>
